<svg width="40" height="34" viewBox="0 0 40 34" fill="none" xmlns="http://www.w3.org/2000/svg">
<path d="M34.4429 23.0991H5.55755C4.20644 23.0991 3.11133 22.004 3.11133 20.6529V5.55734C3.11133 4.20623 4.20644 3.11111 5.55755 3.11111H34.4424C35.7935 3.11111 36.8887 4.20623 36.8887 5.55734V20.6524C36.8891 22.004 35.794 23.0991 34.4429 23.0991Z" fill="#AECDFB"/>
<path d="M24.019 15.1742H9.25499C9.00966 15.1742 8.81055 14.9751 8.81055 14.7298C8.81055 14.4844 9.00966 14.2853 9.25499 14.2853H24.019C24.2648 14.2853 24.4634 14.4844 24.4634 14.7298C24.4634 14.9751 24.2648 15.1742 24.019 15.1742Z" fill="#0C0C0C"/>
<path d="M23.008 11.0218H5.74132C5.49599 11.0218 5.29688 10.8227 5.29688 10.5773C5.29688 10.332 5.49599 10.1329 5.74132 10.1329H23.008C23.2538 10.1329 23.4524 10.332 23.4524 10.5773C23.4524 10.8227 23.2533 11.0218 23.008 11.0218Z" fill="#0C0C0C"/>
<path d="M11.272 26.2102H2.44178C1.09556 26.2102 0 25.1147 0 23.7684V2.44178C0 1.09556 1.09556 0 2.44178 0H37.5582C38.9044 0 40 1.09556 40 2.44178V4.15822C40 4.40355 39.8013 4.60266 39.5555 4.60266C39.3098 4.60266 39.1111 4.40355 39.1111 4.15822V2.44178C39.1111 1.58533 38.4146 0.888888 37.5582 0.888888H2.44178C1.58533 0.888888 0.888889 1.58533 0.888889 2.44178V23.768C0.888889 24.6244 1.58533 25.3209 2.44178 25.3209H11.272C11.5173 25.3209 11.7164 25.5195 11.7164 25.7653C11.7164 26.0111 11.5173 26.2102 11.272 26.2102Z" fill="#0C0C0C"/>
<path d="M20.3639 26.2102H16.4933C16.2479 26.2102 16.0488 26.0115 16.0488 25.7658C16.0488 25.52 16.2479 25.3213 16.4933 25.3213H20.3639C20.6097 25.3213 20.8084 25.52 20.8084 25.7658C20.8084 26.0115 20.6097 26.2102 20.3639 26.2102Z" fill="#0C0C0C"/>
<path d="M37.5581 26.2102H24.2342C23.9884 26.2102 23.7897 26.0115 23.7897 25.7658C23.7897 25.52 23.9884 25.3213 24.2342 25.3213H37.5581C38.4146 25.3213 39.111 24.6249 39.111 23.7684V21.9009H4.56749C4.32216 21.9009 4.12305 21.7022 4.12305 21.4564C4.12305 21.2107 4.32216 21.012 4.56749 21.012H39.5555C39.8013 21.012 39.9999 21.2107 39.9999 21.4564V23.7684C39.9999 25.1147 38.9044 26.2102 37.5581 26.2102Z" fill="#0C0C0C"/>
<path d="M29.137 33.6338H11.589C11.3436 33.6338 11.1445 33.4351 11.1445 33.1893C11.1445 31.4133 12.5894 29.9684 14.3659 29.9684H14.6828L16.069 25.6302C16.1436 25.3969 16.3952 25.2662 16.6276 25.3427C16.8614 25.4173 16.9903 25.6671 16.9156 25.9013L15.4308 30.5484C15.3721 30.7324 15.2005 30.8573 15.0072 30.8573H14.3654C13.2312 30.8573 12.2836 31.6707 12.0756 32.7449H28.6494C28.4414 31.6707 27.4934 30.8573 26.3596 30.8573H25.7183C25.525 30.8573 25.3539 30.7324 25.2952 30.5484L23.8103 25.9013C23.7352 25.6675 23.8645 25.4173 24.0979 25.3427C24.333 25.2649 24.5819 25.3969 24.6565 25.6302L26.0427 29.9684H26.3596C28.1361 29.9684 29.581 31.4133 29.581 33.1893C29.5814 33.4351 29.3823 33.6338 29.137 33.6338Z" fill="#0C0C0C"/>
<path d="M20.8154 23.7733H19.9132C19.6679 23.7733 19.4688 23.5747 19.4688 23.3289C19.4688 23.0831 19.6679 22.8844 19.9132 22.8844H20.8154C21.0612 22.8844 21.2599 23.0831 21.2599 23.3289C21.2599 23.5747 21.0612 23.7733 20.8154 23.7733Z" fill="#0C0C0C"/>
</svg>
